<svg width="258" height="80" viewBox="0 0 258 80" fill="none" xmlns="http://www.w3.org/2000/svg">
<path d="M-0.00875156 61.3413L18.3512 19.3413L32.2713 19.3413L50.6313 61.3413L35.9913 61.3413L22.4312 26.0613L27.9513 26.0613L14.3912 61.3413L-0.00875156 61.3413ZM10.9112 54.0213L14.5112 43.8213L33.8312 43.8213L37.4312 54.0213L10.9112 54.0213ZM127.256 61.3413L127.256 42.9213L130.496 51.3813L111.416 19.3413L126.356 19.3413L139.256 41.2413L130.556 41.2413L143.576 19.3413L157.256 19.3413L138.296 51.3813L141.416 42.9213L141.416 61.3413L127.256 61.3413ZM161.454 61.3413L161.454 19.3413L173.094 19.3413L194.454 44.9013L189.054 44.9013L189.054 19.3413L202.854 19.3413L202.854 61.3413L191.214 61.3413L169.854 35.7813L175.254 35.7813L175.254 61.3413L161.454 61.3413ZM224.736 52.3413L223.956 36.8013L239.796 19.3413L255.216 19.3413L237.456 38.9013L229.596 46.9413L224.736 52.3413ZM212.076 61.3413L212.076 19.3413L225.996 19.3413L225.996 61.3413L212.076 61.3413ZM239.676 61.3413L227.316 45.0213L236.496 35.3013L256.056 61.3413L239.676 61.3413Z" fill="white"/>
<path d="M68.8684 44.9469L75.4752 44.8238C90.7138 49.069 88.3034 55.6476 77.2098 61.6226L68.865 61.6903C64.6996 61.7241 59.8855 61.4498 57.8069 57.8398C56.0689 54.8212 56.1898 50.8686 58.6658 48.0075C61.0804 45.2172 65.1791 45.0157 68.8684 44.9469Z" fill="#FD6219" fill-opacity="0.86" stroke="#FD6219" stroke-opacity="0.86"/>
<path d="M96.9053 18.0059L86.8338 17.6396C78.6738 18.3242 78.3742 22.6799 82.7385 34.9905L95.3378 34.8296C95.1733 36.596 97.1673 37.7324 98.6031 36.6907L108.796 29.2956C110.303 28.2017 110.46 26.0125 109.124 24.7149L100.751 16.5862C99.3815 15.2567 97.0823 16.1055 96.9053 18.0059Z" fill="#FD6219" fill-opacity="0.86"/>
<mask id="mask0_415_3" style="mask-type:alpha" maskUnits="userSpaceOnUse" x="79" y="15" width="32" height="22">
<path d="M96.4534 17.2597L86.3848 17.6978C78.3054 19.0311 78.3542 23.3969 83.6865 35.3201L96.2329 34.1548C96.2097 35.9286 98.288 36.9024 99.6362 35.7495L109.207 27.565C110.622 26.3543 110.604 24.1596 109.168 22.9728L100.174 15.5378C98.7025 14.3217 96.4783 15.3512 96.4534 17.2597Z" fill="#D9D9D9"/>
</mask>
<g mask="url(#mask0_415_3)">
<path d="M92.7682 33.3256C76.0913 21.4122 88.7668 16.3858 88.7668 16.3858C69.4695 18.3513 65.3251 34.0593 79.4936 44.5301C93.6621 55.0009 87.3994 56.5464 83.2634 61.3044C99.0882 61.0598 109.445 45.2389 92.7682 33.3256Z" fill="black" fill-opacity="0.1"/>
</g>
<mask id="mask1_415_3" style="mask-type:alpha" maskUnits="userSpaceOnUse" x="56" y="44" width="31" height="18">
<path d="M69.0765 44.8872L75.6843 44.9264C90.8141 49.5445 88.2429 56.0619 77.0059 61.7627L68.662 61.6255C64.4969 61.557 59.691 61.1645 57.7017 57.5046C56.0383 54.4443 56.2563 50.4958 58.8017 47.6964C61.2842 44.9662 65.3866 44.8654 69.0765 44.8872Z" fill="#D9D9D9"/>
</mask>
<g mask="url(#mask1_415_3)">
<path d="M81.7802 33.2131C63.7033 23.5557 75.6224 16.9327 75.6224 16.9327C56.7414 21.3765 54.6626 37.4884 70.0656 46.0397C85.4687 54.5909 79.4585 56.9331 75.9724 62.1859C91.6326 59.8976 99.8571 42.8706 81.7802 33.2131Z" fill="black" fill-opacity="0.1"/>
</g>
<path d="M88.4356 35.0022C74.9461 21.1558 86.7628 17.7026 86.7628 17.7026C69.4044 17.315 63.9788 32.4047 75.4006 44.5152C86.8224 56.6257 81.0881 57.4009 76.8861 61.6225C90.969 63.2975 101.925 48.8486 88.4356 35.0022Z" fill="#FD6219" stroke="#FD6219" stroke-linecap="round"/>
</svg>
